<svg width="114" height="114" viewBox="0 0 114 114" fill="none" xmlns="http://www.w3.org/2000/svg">
<path d="M74.4702 38.1146L48.5688 64.0168L39.5396 54.9846L39.5394 54.9844C37.3539 52.7994 33.8148 52.7993 31.6295 54.9844C29.4436 57.1699 29.4442 60.7088 31.6291 62.8957L31.6294 62.8961L44.6127 75.8791L44.6142 75.8806C45.7061 76.968 47.1323 77.5193 48.5687 77.5193C49.9945 77.5193 51.4328 76.9688 52.5233 75.8795L52.5237 75.8791L82.3765 46.0269C84.5625 43.8413 84.5616 40.3025 82.3771 38.1147L82.3761 38.1138C80.1912 35.9317 76.6526 35.9305 74.4705 38.1142C74.4704 38.1143 74.4703 38.1145 74.4702 38.1146ZM1 56.998C1 26.1207 26.126 1 57 1C87.8826 1 113 26.1206 113 56.998C113 87.8771 87.8808 113 57 113C26.1244 113 1 87.8751 1 56.998Z" stroke="#FAFAFA" stroke-width="2"/>
</svg>
