<svg width="33" height="33" viewBox="0 0 33 33" fill="none" xmlns="http://www.w3.org/2000/svg">
<path fill-rule="evenodd" clip-rule="evenodd" d="M16.5 0C7.3873 0 0 7.3873 0 16.5C0 25.6127 7.3873 33 16.5 33C25.6127 33 33 25.6127 33 16.5C33 7.3873 25.6127 0 16.5 0ZM21.3894 17.3626C21.1753 17.7039 21.0896 17.8738 21.3894 18.2556C21.4119 18.2869 21.5255 18.4018 21.6972 18.5756C22.4228 19.3099 24.1864 21.0944 24.4982 22.0566C24.6666 22.6223 24.3738 22.9091 23.7958 22.9091H21.768C21.2269 22.9091 20.954 22.6087 20.3635 21.9588C20.1123 21.6824 19.8037 21.3427 19.3926 20.9361C18.1871 19.7868 17.6709 19.6371 17.3711 19.6371C16.8217 19.6371 16.8231 19.7923 16.836 21.2339C16.8383 21.4897 16.841 21.786 16.841 22.1291C16.841 22.6223 16.6833 22.9091 15.3921 22.9091C13.2438 22.9091 10.8823 21.6179 9.20538 19.2351C6.6893 15.7442 6 13.1018 6 12.5704C6 12.2696 6.11669 12.0008 6.69548 12.0008H8.72396C9.24402 12.0008 9.43953 12.2252 9.63967 12.7808C10.6311 15.6444 12.3041 18.1465 12.9934 18.1465C13.2523 18.1465 13.369 18.0273 13.369 17.379V14.4203C13.3222 13.5773 13.0252 13.2128 12.8053 12.9429C12.6694 12.7762 12.563 12.6456 12.563 12.4605C12.563 12.2384 12.7554 12 13.0792 12H16.2676C16.6949 12 16.8394 12.2283 16.8394 12.7395V16.7174C16.8394 17.1436 17.0365 17.2932 17.1632 17.2932C17.4205 17.2932 17.6384 17.1436 18.1098 16.6769C19.5703 15.0616 20.6027 12.5696 20.6027 12.5696C20.7302 12.2688 20.9682 12 21.4844 12H23.5122C24.1249 12 24.2517 12.3132 24.1249 12.7395L24.1234 12.7403C23.8684 13.9099 21.3933 17.3587 21.3894 17.3626Z" fill="#02AEB0"/>
</svg>
