<svg width="33" height="33" viewBox="0 0 33 33" fill="none" xmlns="http://www.w3.org/2000/svg">
<path fill-rule="evenodd" clip-rule="evenodd" d="M16.5 0C7.3873 0 0 7.3873 0 16.5C0 25.6127 7.3873 33 16.5 33C25.6127 33 33 25.6127 33 16.5C33 7.3873 25.6127 0 16.5 0ZM15.6736 8.00234H15.6749L16.0001 8.00244C18.6057 8.00244 18.9145 8.01179 19.9434 8.05856C20.8949 8.10207 21.4113 8.26108 21.7553 8.39467C22.2107 8.57157 22.5354 8.78303 22.8767 9.12463C23.2183 9.46623 23.4297 9.79156 23.607 10.247C23.7406 10.5907 23.8998 11.1071 23.9431 12.0587C23.9898 13.0876 24 13.3966 24 16.0013C24 18.606 23.9898 18.9151 23.9431 19.9439C23.8996 20.8955 23.7406 21.412 23.607 21.7556C23.4301 22.2111 23.2183 22.5354 22.8767 22.8768C22.5352 23.2184 22.2109 23.4299 21.7553 23.6068C21.4117 23.741 20.8949 23.8996 19.9434 23.9431C18.9147 23.9898 18.6057 24 16.0001 24C13.3943 24 13.0855 23.9898 12.0568 23.9431C11.1053 23.8991 10.5889 23.7401 10.2447 23.6066C9.7893 23.4297 9.46401 23.2182 9.12245 22.8766C8.7809 22.535 8.56946 22.2105 8.39218 21.7548C8.25861 21.4112 8.09942 20.8947 8.05611 19.9431C8.00935 18.9143 8 18.6052 8 15.9989C8 13.3926 8.00935 13.0851 8.05611 12.0563C8.09962 11.1047 8.25861 10.5882 8.39218 10.2442C8.56905 9.78871 8.7809 9.46338 9.12245 9.12178C9.46401 8.78019 9.7893 8.56872 10.2447 8.39141C10.5887 8.25722 11.1053 8.09862 12.0568 8.0549C12.957 8.01423 13.3059 8.00203 15.1247 8V8.00244C15.2943 8.00218 15.4768 8.00226 15.6736 8.00234ZM16 12.75C17.7964 12.75 19.2529 14.2065 19.2529 16.0033C19.2529 17.8 17.7964 19.2566 16 19.2566C14.2034 19.2566 12.7471 17.8 12.7471 16.0033C12.7471 14.2065 14.2034 12.75 16 12.75ZM20.0376 10.7942C20.0376 10.1474 20.5621 9.62345 21.2086 9.62345V9.62305C21.8552 9.62305 22.3797 10.1476 22.3797 10.7942C22.3797 11.4408 21.8552 11.9654 21.2086 11.9654C20.5621 11.9654 20.0376 11.4408 20.0376 10.7942ZM16.0001 10.9915C13.2325 10.9915 10.9886 13.2357 10.9886 16.0037C10.9886 18.7716 13.2325 21.0148 16.0001 21.0148C18.7676 21.0148 21.0107 18.7716 21.0107 16.0037C21.0107 13.2358 18.7676 10.9916 16.0001 10.9915Z" fill="#02AEB0"/>
</svg>
