<svg width="16" height="16" viewBox="0 0 16 16" fill="none" xmlns="http://www.w3.org/2000/svg">
<path d="M8.00313 4.40625C6.01563 4.40625 4.4125 6.00938 4.4125 7.99688C4.4125 9.98438 6.01563 11.5875 8.00313 11.5875C9.99063 11.5875 11.5938 9.98438 11.5938 7.99688C11.5938 6.00938 9.99063 4.40625 8.00313 4.40625ZM8.00313 10.3313C6.71875 10.3313 5.66875 9.28438 5.66875 7.99688C5.66875 6.70938 6.71563 5.6625 8.00313 5.6625C9.29063 5.6625 10.3375 6.70938 10.3375 7.99688C10.3375 9.28438 9.2875 10.3313 8.00313 10.3313V10.3313ZM12.5781 4.25938C12.5781 4.725 12.2031 5.09688 11.7406 5.09688C11.275 5.09688 10.9031 4.72188 10.9031 4.25938C10.9031 3.79688 11.2781 3.42188 11.7406 3.42188C12.2031 3.42188 12.5781 3.79688 12.5781 4.25938ZM14.9563 5.10938C14.9031 3.9875 14.6469 2.99375 13.825 2.175C13.0063 1.35625 12.0125 1.1 10.8906 1.04375C9.73438 0.978125 6.26875 0.978125 5.1125 1.04375C3.99375 1.09688 3 1.35313 2.17813 2.17188C1.35625 2.99063 1.10313 3.98438 1.04688 5.10625C0.981252 6.2625 0.981252 9.72812 1.04688 10.8844C1.1 12.0062 1.35625 13 2.17813 13.8188C3 14.6375 3.99063 14.8937 5.1125 14.95C6.26875 15.0156 9.73438 15.0156 10.8906 14.95C12.0125 14.8969 13.0063 14.6406 13.825 13.8188C14.6438 13 14.9 12.0062 14.9563 10.8844C15.0219 9.72812 15.0219 6.26563 14.9563 5.10938V5.10938ZM13.4625 12.125C13.2188 12.7375 12.7469 13.2094 12.1313 13.4563C11.2094 13.8219 9.02188 13.7375 8.00313 13.7375C6.98438 13.7375 4.79375 13.8188 3.875 13.4563C3.2625 13.2125 2.79063 12.7406 2.54375 12.125C2.17813 11.2031 2.2625 9.01563 2.2625 7.99688C2.2625 6.97813 2.18125 4.7875 2.54375 3.86875C2.7875 3.25625 3.25938 2.78438 3.875 2.5375C4.79688 2.17188 6.98438 2.25625 8.00313 2.25625C9.02188 2.25625 11.2125 2.175 12.1313 2.5375C12.7438 2.78125 13.2156 3.25313 13.4625 3.86875C13.8281 4.79063 13.7438 6.97813 13.7438 7.99688C13.7438 9.01563 13.8281 11.2063 13.4625 12.125Z" fill="white"/>
</svg>
