<svg width="94" height="26" viewBox="0 0 94 26" fill="none" xmlns="http://www.w3.org/2000/svg">
<path d="M20.7508 0.361111V25.6389H17.6455V3.25H6.32023V16.9722C6.32023 18.513 6.07668 19.9454 5.58957 21.2694C5.12681 22.5935 4.42051 23.6528 3.47065 24.4472C2.54514 25.2417 1.38826 25.6389 0 25.6389V23.0028C0.730662 23.0028 1.33955 22.7139 1.82666 22.1361C2.33812 21.5343 2.72781 20.7278 2.99572 19.7167C3.26363 18.6815 3.39758 17.5259 3.39758 16.25V0.361111H20.7508Z" fill="#02AEB0"/>
<path d="M25.1422 13C25.1422 11.1463 25.4588 9.43704 26.0921 7.87222C26.7497 6.28333 27.663 4.91111 28.8321 3.75556C30.0011 2.57593 31.3772 1.66111 32.9603 1.01111C34.5434 0.337037 36.2605 0 38.1115 0C39.9868 0 41.7039 0.337037 43.2626 1.01111C44.8457 1.66111 46.2218 2.57593 47.3909 3.75556C48.5599 4.91111 49.4611 6.28333 50.0943 7.87222C50.7519 9.43704 51.0807 11.1463 51.0807 13C51.0807 14.8296 50.7519 16.5389 50.0943 18.1278C49.4611 19.7167 48.5599 21.1009 47.3909 22.2806C46.2218 23.4361 44.8457 24.3509 43.2626 25.025C41.7039 25.675 39.9868 26 38.1115 26C36.2605 26 34.5434 25.675 32.9603 25.025C31.3772 24.3509 30.0011 23.4361 28.8321 22.2806C27.663 21.1009 26.7497 19.7167 26.0921 18.1278C25.4588 16.5389 25.1422 14.8296 25.1422 13ZM28.4302 13C28.4302 14.9019 28.8442 16.5991 29.6723 18.0917C30.5248 19.5843 31.6816 20.7639 33.143 21.6306C34.6043 22.4972 36.2605 22.9306 38.1115 22.9306C39.9868 22.9306 41.643 22.4972 43.08 21.6306C44.5413 20.7639 45.686 19.5843 46.5141 18.0917C47.3665 16.5991 47.7927 14.9019 47.7927 13C47.7927 11.0981 47.3665 9.40093 46.5141 7.90833C45.686 6.41574 44.5413 5.23611 43.08 4.36944C41.643 3.50278 39.9868 3.06945 38.1115 3.06945C36.2605 3.06945 34.6043 3.50278 33.143 4.36944C31.6816 5.23611 30.5248 6.41574 29.6723 7.90833C28.8442 9.40093 28.4302 11.0981 28.4302 13Z" fill="#02AEB0"/>
<path d="M55.4661 0.361111H68.07V3.25H58.5714V25.6389H55.4661V0.361111Z" fill="#02AEB0"/>
<path d="M68.0615 13C68.0615 11.1463 68.3781 9.43704 69.0113 7.87222C69.6689 6.28333 70.5823 4.91111 71.7513 3.75556C72.9204 2.57593 74.2965 1.66111 75.8796 1.01111C77.4627 0.337037 79.1797 0 81.0307 0C82.9061 0 84.6232 0.337037 86.1819 1.01111C87.765 1.66111 89.1411 2.57593 90.3102 3.75556C91.4792 4.91111 92.3804 6.28333 93.0136 7.87222C93.6712 9.43704 94 11.1463 94 13C94 14.8296 93.6712 16.5389 93.0136 18.1278C92.3804 19.7167 91.4792 21.1009 90.3102 22.2806C89.1411 23.4361 87.765 24.3509 86.1819 25.025C84.6232 25.675 82.9061 26 81.0307 26C79.1797 26 77.4627 25.675 75.8796 25.025C74.2965 24.3509 72.9204 23.4361 71.7513 22.2806C70.5823 21.1009 69.6689 19.7167 69.0113 18.1278C68.3781 16.5389 68.0615 14.8296 68.0615 13ZM71.3495 13C71.3495 14.9019 71.7635 16.5991 72.5916 18.0917C73.444 19.5843 74.6009 20.7639 76.0622 21.6306C77.5236 22.4972 79.1797 22.9306 81.0307 22.9306C82.9061 22.9306 84.5623 22.4972 85.9992 21.6306C87.4606 20.7639 88.6053 19.5843 89.4334 18.0917C90.2858 16.5991 90.712 14.9019 90.712 13C90.712 11.0981 90.2858 9.40093 89.4334 7.90833C88.6053 6.41574 87.4606 5.23611 85.9992 4.36944C84.5623 3.50278 82.9061 3.06945 81.0307 3.06945C79.1797 3.06945 77.5236 3.50278 76.0622 4.36944C74.6009 5.23611 73.444 6.41574 72.5916 7.90833C71.7635 9.40093 71.3495 11.0981 71.3495 13Z" fill="#02AEB0"/>
</svg>
