<svg width="19" height="12" viewBox="0 0 19 12" fill="none" xmlns="http://www.w3.org/2000/svg">
<path d="M18.4345 1.29539C18.5619 0.869218 18.4345 0.555556 17.8216 0.555556H15.7933C15.2767 0.555556 15.0391 0.824896 14.9117 1.12492C14.9117 1.12492 13.8786 3.61717 12.4185 5.23322C11.9467 5.7003 11.7298 5.85032 11.4715 5.85032C11.3441 5.85032 11.1478 5.7003 11.1478 5.27413V1.29539C11.1478 0.783984 11.0032 0.555556 10.5762 0.555556H7.38738C7.06368 0.555556 6.87084 0.794212 6.87084 1.01582C6.87084 1.49995 7.60089 1.61246 7.67665 2.97621V5.93555C7.67665 6.58333 7.55956 6.70266 7.30129 6.70266C6.61257 6.70266 4.93897 4.20018 3.9472 1.3363C3.74747 0.780575 3.55119 0.555556 3.0312 0.555556H1.0029C0.424375 0.555556 0.307292 0.824896 0.307292 1.12492C0.307292 1.65678 0.996017 4.29905 3.51331 7.79025C5.19035 10.1734 7.55268 11.4656 9.7015 11.4656C10.9929 11.4656 11.1513 11.1792 11.1513 10.6848C11.1513 8.40735 11.0342 8.19256 11.6816 8.19256C11.9812 8.19256 12.4977 8.34257 13.703 9.49153C15.0804 10.8553 15.3077 11.4656 16.0791 11.4656H18.1074C18.6859 11.4656 18.9786 11.1792 18.8099 10.6132C18.4242 9.42334 15.8174 6.97541 15.7003 6.81176C15.4007 6.42991 15.4868 6.25944 15.7003 5.9185C15.7037 5.91509 18.1797 2.46481 18.4345 1.29539V1.29539Z" fill="white"/>
</svg>
